<svg aria-hidden="true" style="position: absolute; width: 0; height: 0; overflow: hidden;" version="1.1" xmlns="http://www.w3.org/2000/svg" xmlns:xlink="http://www.w3.org/1999/xlink">
<defs>
<symbol id="icon-git" viewBox="0 0 32 32">
<path d="M16 0c-8.789 0-16 7.211-16 16 0 7.499 5.262 14.312 12.25 16v-5.293c-0.276 0.070-0.593 0.109-0.919 0.109-0.398 0-0.781-0.059-1.143-0.169l0.028 0.007c-0.946-0.278-1.714-0.909-2.285-1.869-0.363-0.613-1.008-1.28-1.68-1.23l-0.165-1.867c1.454-0.125 2.71 0.886 3.456 2.139 0.333 0.558 0.715 0.885 1.205 1.029 0.472 0.141 0.981 0.074 1.573-0.136 0.149-1.186 0.693-1.629 1.104-2.256-4.168-0.621-5.829-2.832-6.488-4.576-0.874-2.318-0.405-5.213 1.139-7.043 0.030-0.035 0.085-0.128 0.064-0.192-0.709-2.141 0.154-3.91 0.186-4.098 0.818 0.24 0.95-0.243 3.552 1.336l0.448 0.27c0.189 0.112 0.128 0.048 0.317 0.032 1.003-0.282 2.157-0.452 3.349-0.469l0.010-0c1.136 0.014 2.272 0.176 3.403 0.483l0.146 0.016c-0.013-0.003 0.040-0.010 0.128-0.062 3.248-1.968 3.131-1.325 4.003-1.608 0.032 0.189 0.882 1.987 0.182 4.099-0.096 0.291 2.816 2.957 1.202 7.235-0.659 1.744-2.32 3.957-6.486 4.578 0.534 0.816 1.176 1.248 1.173 2.928v6.606c6.986-1.688 12.25-8.501 12.25-16 0-8.789-7.211-16-16-16z"></path>
</symbol>
<symbol id="icon-fb" viewBox="0 0 16 32">
<path d="M14.143 15.971h-4.033v14.865h-6.112v-14.865h-2.906v-5.222h2.906v-3.382c0-2.417 1.142-6.204 6.167-6.204l4.527 0.019v5.072h-3.284c-0.538 0-1.297 0.272-1.297 1.425v3.073h4.567l-0.534 5.219z"></path>
</symbol>
<symbol id="icon-tg" viewBox="0 0 44 32">
<path d="M17.346 21.048l-0.676 8.86c0.966 0 1.384-0.388 1.886-0.852l4.528-4.040 9.38 6.414c1.72 0.894 2.932 0.422 3.396-1.478l6.16-26.932c0.546-2.372-0.92-3.3-2.596-2.72l-36.194 12.934c-2.47 0.896-2.432 2.18-0.42 2.766l9.254 2.686 21.494-12.552c1.010-0.626 1.93-0.28 1.174 0.346l-17.386 14.57z"></path>
</symbol>
<symbol id="icon-arrow" viewBox="0 0 69 32">
<path d="M68.080 17.413c0.361-0.362 0.585-0.861 0.585-1.413s-0.224-1.052-0.585-1.413l-12.727-12.729c-0.362-0.362-0.862-0.586-1.415-0.586-1.105 0-2.001 0.896-2.001 2.001 0 0.552 0.224 1.053 0.586 1.415l11.316 11.313-11.315 11.313c-0.362 0.362-0.586 0.862-0.586 1.415 0 1.105 0.896 2.001 2.001 2.001 0.552 0 1.053-0.224 1.415-0.586l12.728-12.728zM0 18h66.667v-4h-66.667v4z"></path>
</symbol>
<symbol id="icon-arrow-h" viewBox="0 0 102 32">
<path d="M101.414 17.414c0.362-0.362 0.586-0.862 0.586-1.414s-0.224-1.052-0.586-1.414l-12.728-12.728c-0.364-0.377-0.874-0.611-1.439-0.611-1.105 0-2 0.895-2 2 0 0.565 0.234 1.074 0.61 1.438l0.001 0.001 11.314 11.314-11.314 11.314c-0.347 0.359-0.561 0.849-0.561 1.389 0 1.105 0.895 2 2 2 0.54 0 1.030-0.214 1.39-0.562l-0.001 0.001 12.728-12.728zM0 18h100v-4h-100v4z"></path>
</symbol>
<symbol id="icon-arrow-f" viewBox="0 0 82 32">
<path d="M81.414 17.414c0.362-0.362 0.586-0.862 0.586-1.414s-0.224-1.052-0.586-1.414l-12.728-12.728c-0.364-0.377-0.874-0.611-1.439-0.611-1.105 0-2 0.895-2 2 0 0.565 0.234 1.074 0.61 1.438l0.001 0.001 11.314 11.314-11.314 11.314c-0.347 0.359-0.561 0.849-0.561 1.389 0 1.105 0.895 2 2 2 0.54 0 1.030-0.214 1.39-0.562l-0.001 0.001 12.728-12.728zM0 18h80v-4h-80v4z"></path>
</symbol>
<symbol id="icon-close-button" viewBox="0 0 32 32">
<path d="M18.088 16l12.282-12.281c0.243-0.283 0.369-0.648 0.355-1.021s-0.169-0.727-0.433-0.99c-0.264-0.264-0.617-0.418-0.99-0.433s-0.737 0.112-1.021 0.355l-12.281 12.281-12.281-12.296c-0.279-0.279-0.657-0.436-1.052-0.436s-0.773 0.157-1.052 0.436c-0.279 0.279-0.436 0.657-0.436 1.052s0.157 0.773 0.436 1.052l12.296 12.281-12.296 12.281c-0.155 0.133-0.281 0.296-0.37 0.48s-0.139 0.384-0.147 0.588c-0.008 0.204 0.026 0.408 0.101 0.598s0.187 0.363 0.332 0.507c0.144 0.145 0.317 0.257 0.507 0.332s0.394 0.109 0.598 0.101c0.204-0.008 0.404-0.058 0.588-0.147s0.347-0.215 0.48-0.37l12.296-12.282 12.281 12.282c0.283 0.243 0.648 0.369 1.021 0.355s0.727-0.169 0.99-0.433c0.264-0.264 0.418-0.617 0.433-0.99s-0.112-0.737-0.355-1.021l-12.282-12.281z"></path>
</symbol>
<symbol id="icon-arrow-head" viewBox="0 0 32 32"> 
<path d="M8.75 0.138c-0.275 0.106-0.481 0.275-1.069 0.856-0.9 0.894-1.019 1.106-1.025 1.788 0 0.362 0.031 0.569 0.119 0.75 0.081 0.169 2.081 2.219 6.219 6.363l6.1 6.106-6.106 6.113c-4.75 4.75-6.138 6.169-6.231 6.387-0.088 0.188-0.131 0.419-0.131 0.688 0 0.644 0.181 0.956 1.050 1.819 0.613 0.606 0.794 0.744 1.094 0.856 0.456 0.175 0.819 0.175 1.275 0.006 0.35-0.125 0.675-0.444 7.688-7.456 8.106-8.1 7.644-7.587 7.644-8.413s0.462-0.313-7.644-8.412c-7.019-7.019-7.338-7.331-7.688-7.456-0.45-0.163-0.85-0.163-1.294 0.006z"></path> 
</symbol>
<symbol id="about-modal-cross" viewBox="0 0 32 32">
<path d="M17.254 16l7.369-7.369c0.146-0.17 0.222-0.389 0.213-0.613s-0.101-0.436-0.26-0.594c-0.158-0.158-0.37-0.251-0.594-0.26s-0.442 0.067-0.613 0.213l-7.369 7.369-7.369-7.378c-0.167-0.167-0.394-0.261-0.631-0.261s-0.464 0.094-0.631 0.261c-0.167 0.167-0.261 0.394-0.261 0.631s0.094 0.464 0.261 0.631l7.378 7.369-7.378 7.369c-0.093 0.080-0.169 0.178-0.222 0.288s-0.083 0.23-0.088 0.353 0.016 0.245 0.061 0.359c0.045 0.114 0.112 0.218 0.199 0.304s0.19 0.154 0.304 0.199c0.114 0.045 0.236 0.065 0.359 0.061s0.243-0.035 0.353-0.088c0.11-0.053 0.208-0.129 0.288-0.222l7.378-7.369 7.369 7.369c0.17 0.146 0.389 0.222 0.613 0.213s0.436-0.101 0.594-0.26c0.158-0.158 0.251-0.371 0.26-0.594s-0.068-0.443-0.213-0.613l-7.369-7.369z"></path>
</symbol>
<symbol id="icon-burger-menu" viewBox="0 0 32 32">
<path d="M6.4 11.734v-2.134h19.2v2.134h-19.2zM6.4 17.066h19.2v-2.133h-19.2v2.133zM6.4 22.4h19.2v-2.134h-19.2v2.134z"></path>
</symbol>
</defs>
</svg>
